<svg xmlns="http://www.w3.org/2000/svg" viewBox="0 0 942 74" fill-rule="nonzero" stroke-linejoin="round" stroke-miterlimit="2"><path d="M790.179 57.44l-11.68-21.701-7.353 8.894V57.44h-6.166V15.935h6.166v20.1l16.009-20.1h7.115l-11.619 14.586 14.763 26.918h-7.235zm20.573 0V15.935h6.166V57.44h-6.166zm38.302-35.575V57.44h-6.167V21.865h-11.739v-5.929h29.645v5.929h-11.739z" fill="#8d8d93"/><path d="M529.204 58.151c-3.381.085-6.709-.856-9.545-2.698a13.83 13.83 0 0 1-5.574-7.381l5.81-2.135a10.72 10.72 0 0 0 3.795 4.592c1.699 1.138 3.706 1.728 5.751 1.69 1.965.103 3.906-.485 5.484-1.66a5.76 5.76 0 0 0 2.046-4.743 5.2 5.2 0 0 0-.564-2.402c-.329-.665-.759-1.275-1.275-1.809a8.58 8.58 0 0 0-2.194-1.453l-2.461-1.126-2.876-1.037-3.557-1.304c-1.071-.456-2.11-.981-3.113-1.572a11.49 11.49 0 0 1-2.906-2.194 10.63 10.63 0 0 1-1.748-2.876 10.3 10.3 0 0 1 2.783-11.68c2.372-2.095 5.593-3.142 9.664-3.143 3.4 0 6.197.751 8.39 2.253 2.129 1.416 3.693 3.537 4.417 5.989l-5.691 1.897c-.572-1.284-1.538-2.354-2.757-3.053-1.475-.819-3.146-1.219-4.832-1.157a7.45 7.45 0 0 0-4.655 1.305 4.38 4.38 0 0 0-1.689 3.676c.01 1.09.485 2.126 1.304 2.846a8.95 8.95 0 0 0 2.727 1.838c.95.395 2.393.929 4.329 1.6l2.638.978c.574.216 1.414.582 2.52 1.097.887.392 1.739.858 2.549 1.392.725.521 1.418 1.085 2.075 1.69a8.84 8.84 0 0 1 1.809 2.164c.461.843.819 1.739 1.067 2.668.303 1.091.453 2.219.445 3.351 0 3.874-1.324 6.908-3.973 9.101s-6.047 3.292-10.195 3.297zm38.005-.711l-14.23-41.504h6.641l9.427 28.934a44.96 44.96 0 0 1 1.305 4.744c.347-1.604.782-3.188 1.305-4.744l9.308-28.934h6.581L573.375 57.44h-6.166zm32.906 0V15.935h25.733v5.811h-19.566V33.13h12.629v5.811h-12.629v12.687h20.873v5.811h-27.04zm42.748 0V15.935h6.167V51.51h20.277v5.929h-26.444zm49.685-35.575V57.44h-6.167V21.865h-11.739v-5.929h29.646v5.929h-11.74zm24.485 35.575V15.935h25.733v5.811h-19.564V33.13h12.628v5.811h-12.628v12.687h20.873v5.811h-27.042z" fill="#4a4a55"/><path d="M937.33 9.709c-6.813-9.752-20.271-12.644-30-6.443l-17.087 10.891a19.61 19.61 0 0 0-8.857 13.131 20.65 20.65 0 0 0 2.036 13.254 19.64 19.64 0 0 0-2.932 7.326c-.983 5.53.304 11.229 3.569 15.799 6.813 9.753 20.271 12.644 29.999 6.443l17.088-10.891a19.61 19.61 0 0 0 8.857-13.131 20.66 20.66 0 0 0-2.035-13.255 19.65 19.65 0 0 0 2.931-7.326 20.89 20.89 0 0 0-3.569-15.799" fill="#ff3e00"/><path d="M905.661 64.585a13.6 13.6 0 0 1-14.568-5.4c-1.963-2.748-2.737-6.175-2.146-9.499a11.84 11.84 0 0 1 .408-1.595l.322-.983.876.643a22.04 22.04 0 0 0 6.682 3.341l.635.193-.058.634c-.078.901.166 1.802.689 2.541.975 1.407 2.733 2.059 4.389 1.628a3.77 3.77 0 0 0 1.048-.459l17.089-10.894c.845-.532 1.428-1.396 1.605-2.379.177-1.002-.056-2.035-.647-2.864a4.1 4.1 0 0 0-4.389-1.629 3.74 3.74 0 0 0-1.048.459l-6.521 4.157a12.48 12.48 0 0 1-3.472 1.524 13.6 13.6 0 0 1-14.568-5.4c-1.963-2.748-2.738-6.175-2.147-9.499.587-3.263 2.524-6.131 5.331-7.894l17.087-10.89c1.072-.683 2.244-1.198 3.472-1.526a13.6 13.6 0 0 1 14.568 5.4 12.57 12.57 0 0 1 2.147 9.499 12.11 12.11 0 0 1-.411 1.598l-.322.983-.875-.641c-2.021-1.486-4.281-2.616-6.682-3.341l-.635-.193.059-.634a3.84 3.84 0 0 0-.689-2.541c-.974-1.405-2.731-2.057-4.386-1.628a3.75 3.75 0 0 0-1.048.459l-17.091 10.89c-.844.532-1.428 1.395-1.604 2.378-.178 1.002.055 2.036.646 2.864a4.1 4.1 0 0 0 4.389 1.629c.371-.099.724-.254 1.048-.459l6.52-4.155c1.072-.683 2.244-1.198 3.472-1.525a13.6 13.6 0 0 1 14.565 5.397c1.963 2.748 2.738 6.175 2.147 9.499a11.8 11.8 0 0 1-5.326 7.897l-17.087 10.89c-1.072.683-2.244 1.198-3.472 1.526" fill="#fff"/><path d="M157.559 16.825c2.456 0 4.483.869 6.202 2.607s2.579 3.848 2.579 6.269v30.788h-31.133c-2.456 0-4.483-.869-6.202-2.607s-2.579-3.848-2.579-6.269V32.964h32.607v-7.262c0-.435-.123-.745-.43-1.055s-.614-.435-1.044-.435h-31.133v-7.387h31.133zm1.474 32.277V40.35h-25.3v7.262c0 .435.123.745.43 1.055s.614.435 1.044.435h23.826zm70.433-32.277h7.799l-14.738 39.664h-5.956l-13.202-29.484-12.466 29.484-.123-.062.061.062h-5.895l-15.413-39.664h7.737l10.623 26.318 11.299-26.318h8.351l11.974 26.318 9.948-26.318zm41.265 0c2.456 0 4.483.869 6.202 2.607s2.579 3.848 2.579 6.269V40.35h-32.607v7.262c0 .435.123.745.43 1.055s.614.435 1.044.435h31.133v7.387h-31.133c-2.456 0-4.483-.869-6.202-2.607s-2.579-3.848-2.579-6.269V25.702c0-2.483.86-4.531 2.579-6.269s3.807-2.607 6.202-2.607h22.352zm-23.826 16.139h25.3v-7.262c0-.435-.123-.745-.43-1.055s-.614-.435-1.044-.435h-22.352c-.43 0-.737.124-1.044.435s-.43.621-.43 1.055v7.262zm79.215-7.2v1.49h-7.307v-1.49c0-.435-.123-.745-.43-1.055s-.614-.435-1.044-.435h-22.352c-.43 0-.737.124-1.044.435s-.43.621-.43 1.055v5.773c0 .435.123.745.43 1.055s.614.435 1.044.435h22.352c2.456 0 4.483.869 6.202 2.607s2.579 3.848 2.579 6.269v5.773c0 2.483-.86 4.531-2.579 6.269s-3.807 2.607-6.202 2.607h-22.352c-2.456 0-4.483-.869-6.202-2.607s-2.579-3.848-2.579-6.269v-1.49h7.307v1.49c0 .435.123.745.43 1.055s.614.435 1.044.435h22.352c.43 0 .737-.124 1.044-.435s.43-.621.43-1.055v-5.773c0-.435-.123-.745-.43-1.055s-.614-.435-1.044-.435h-22.352c-2.456 0-4.483-.869-6.202-2.607s-2.579-3.848-2.579-6.269v-5.773c0-2.483.86-4.531 2.579-6.269s3.807-2.607 6.202-2.607h22.352c2.456 0 4.483.869 6.202 2.607 1.719 1.676 2.579 3.786 2.579 6.269zm15.474-8.938h22.352c2.456 0 4.483.869 6.202 2.607s2.579 3.848 2.579 6.269v21.911c0 2.483-.86 4.531-2.579 6.269s-3.807 2.607-6.202 2.607h-22.352c-2.456 0-4.483-.869-6.202-2.607s-2.579-3.848-2.579-6.269V25.702c0-2.483.86-4.531 2.579-6.269s3.807-2.607 6.202-2.607zm22.352 7.387h-22.352c-.43 0-.737.124-1.044.435s-.43.621-.43 1.055v21.911c0 .435.123.745.43 1.055s.614.435 1.044.435h22.352c.43 0 .737-.124 1.044-.435s.43-.621.43-1.055V25.702c0-.435-.123-.745-.43-1.055-.307-.248-.614-.435-1.044-.435zm66.012-7.387c2.456 0 4.483.869 6.202 2.607s2.579 3.848 2.579 6.269v30.788h-7.246V25.702c0-.435-.123-.745-.43-1.055s-.675-.435-1.105-.435h-15.474c-.43 0-.737.124-1.044.435s-.43.621-.43 1.055v30.788h-7.307V25.702c0-.435-.123-.745-.43-1.055s-.614-.435-1.044-.435h-15.536c-.43 0-.737.124-1.044.435s-.43.621-.43 1.055v30.788h-7.307V16.825h50.046zm46.976 0c2.456 0 4.483.869 6.202 2.607s2.579 3.848 2.579 6.269V40.35h-32.607v7.262c0 .435.123.745.43 1.055s.614.435 1.044.435h31.133v7.387h-31.133c-2.456 0-4.483-.869-6.202-2.607s-2.579-3.848-2.579-6.269V25.702c0-2.483.86-4.531 2.579-6.269s3.807-2.607 6.202-2.607h22.352zm-23.826 16.139h25.3v-7.262c0-.435-.123-.745-.43-1.055s-.614-.435-1.044-.435h-22.352c-.43 0-.737.124-1.044.435s-.43.621-.43 1.055v7.262z" fill="#494368"/><path d="M101.349 34.327L75.491 10.605l-3.637 3.965 21.549 19.756H8.465l21.549-19.773-3.637-3.965L.517 34.327H.5v15.636c0 7.068 6.809 12.826 15.17 12.826h15.946c8.361 0 15.17-5.758 15.17-12.826V39.688h8.275v10.275c0 7.068 6.809 12.826 15.17 12.826h15.946c8.361 0 15.17-5.758 15.17-12.826V34.327z" stroke="gray" /></svg>
