<svg xmlns="http://www.w3.org/2000/svg" viewBox="0 0 62 74" fill-rule="nonzero" stroke-linejoin="round" stroke-miterlimit="2"><path d="M57.163 9.709c-6.813-9.752-20.271-12.644-30-6.443L10.076 14.157a19.61 19.61 0 0 0-8.857 13.131 20.65 20.65 0 0 0 2.036 13.254 19.64 19.64 0 0 0-2.932 7.326c-.983 5.53.304 11.229 3.569 15.799 6.813 9.753 20.271 12.644 29.999 6.443L50.978 59.22a19.61 19.61 0 0 0 8.857-13.131A20.66 20.66 0 0 0 57.8 32.834a19.65 19.65 0 0 0 2.931-7.326 20.89 20.89 0 0 0-3.569-15.799" fill="#ff3e00"/><path d="M25.494 64.585a13.6 13.6 0 0 1-14.568-5.4c-1.963-2.748-2.737-6.175-2.146-9.499a11.84 11.84 0 0 1 .408-1.595l.322-.983.876.643a22.04 22.04 0 0 0 6.682 3.341l.635.193-.058.634c-.078.901.166 1.802.689 2.541.975 1.407 2.733 2.059 4.389 1.628a3.77 3.77 0 0 0 1.048-.459L40.86 44.734c.845-.532 1.428-1.396 1.605-2.379.177-1.002-.056-2.035-.647-2.864a4.1 4.1 0 0 0-4.389-1.629 3.74 3.74 0 0 0-1.048.459l-6.521 4.157a12.48 12.48 0 0 1-3.472 1.524 13.6 13.6 0 0 1-14.568-5.4c-1.963-2.748-2.738-6.175-2.147-9.499.587-3.263 2.524-6.131 5.331-7.894l17.087-10.89c1.072-.683 2.244-1.198 3.472-1.526a13.6 13.6 0 0 1 14.568 5.4 12.57 12.57 0 0 1 2.147 9.499 12.11 12.11 0 0 1-.411 1.598l-.322.983-.875-.641c-2.021-1.486-4.281-2.616-6.682-3.341l-.635-.193.059-.634a3.84 3.84 0 0 0-.689-2.541c-.974-1.405-2.731-2.057-4.386-1.628a3.75 3.75 0 0 0-1.048.459l-17.091 10.89c-.844.532-1.428 1.395-1.604 2.378-.178 1.002.055 2.036.646 2.864a4.1 4.1 0 0 0 4.389 1.629c.371-.099.724-.254 1.048-.459l6.52-4.155c1.072-.683 2.244-1.198 3.472-1.525a13.6 13.6 0 0 1 14.565 5.397c1.963 2.748 2.738 6.175 2.147 9.499a11.8 11.8 0 0 1-5.326 7.897L28.966 63.06c-1.072.683-2.244 1.198-3.472 1.526" fill="#fff"/><path d="M51.382 24.918l-10.694-9.81-1.504 1.64 8.912 8.17H12.968l8.912-8.177-1.504-1.64-10.694 9.817h-.007v6.466c0 2.923 2.816 5.304 6.274 5.304h6.595c3.458 0 6.274-2.381 6.274-5.304v-4.249h3.422v4.249c0 2.923 2.816 5.304 6.274 5.304h6.595c3.458 0 6.274-2.381 6.274-5.304v-6.466z"/></svg>
